<svg width="324" height="209" viewBox="0 0 324 209" fill="none" xmlns="http://www.w3.org/2000/svg">
<path d="M37.6966 180.665C37.6966 180.665 34.2946 201.076 34.6526 208.058H99.4634C99.4634 208.058 99.8214 181.202 97.6731 174.578C95.5249 167.953 37.6966 180.665 37.6966 180.665Z" fill="#0B065A" stroke="black" stroke-width="0.463489" stroke-miterlimit="10" stroke-linecap="round"/>
<path d="M85.4822 55.9028C85.4822 55.9028 83.1741 60.4484 81.7419 67.4309C80.3097 74.4134 79.4546 79.3518 75.4686 81.4178C71.8765 83.2718 69.566 83.3587 69.566 83.3587L68.3123 91.1476L73.9529 92.9378C73.9529 92.9378 77.0815 100.457 66.2533 100.636C55.425 100.816 50.5885 89.0886 50.5885 89.0886C50.5885 89.0886 54.6162 85.2393 54.7054 80.6739C54.7054 80.6739 44.3221 70.0206 47.2757 58.7417C50.2293 47.4627 80.1985 40.953 85.4822 55.9028Z" fill="white" stroke="black" stroke-width="0.463489" stroke-linecap="round" stroke-linejoin="round"/>
<path opacity="0.27" d="M82.6083 56.3815C82.6083 56.3815 65.6145 54.5705 61.1499 58.568C57.0747 62.218 53.1964 66.8239 55.5232 79.3567C57.8499 91.8894 68.2587 96.96 68.2587 96.96C68.2587 96.96 56.208 96.3945 50.777 89.0239C50.777 89.0239 54.6564 85.7714 54.9253 80.6394C54.9253 80.6394 51.434 76.6117 50.5082 74.4031C49.5824 72.1946 42.9893 51.0398 52.7758 47.5208C62.5624 44.0018 83.6743 34.0321 82.6083 56.3815Z" fill="#3D3D3D"/>
<path d="M44.9765 58.9799C44.9765 58.9799 42.8282 51.6428 45.5732 46.5978C48.3182 41.5527 56.1964 36.4207 68.2517 36.0627C80.307 35.7046 88.3126 47.293 86.1551 52.8919C86.1551 52.8919 64.0745 44.1795 44.9765 58.9799Z" fill="#4052F2" stroke="black" stroke-width="0.463489" stroke-miterlimit="10" stroke-linecap="round"/>
<path d="M71.2958 46.501C71.2958 46.501 66.64 45.851 59.361 47.224C52.0819 48.5971 47.2083 44.6505 47.2083 44.6505C47.2083 44.6505 45.8537 45.9541 45.0426 48.5172C44.257 50.9968 43.9928 54.6653 45.4598 58.9804C45.454 58.9804 53.7493 49.896 71.2958 46.501Z" fill="#0502AB"/>
<path d="M44.8574 62.798C44.8574 62.798 46.6337 71.7039 50.461 74.9495C50.461 74.9495 52.1087 75.6586 51.8399 72.7051C51.5711 69.7515 48.2594 65.9914 50.7657 62.4098C51.9001 60.7876 53.1724 61.0472 54.2257 61.8166C54.3801 61.9279 54.563 61.9931 54.753 62.0046C54.9431 62.0162 55.1325 61.9735 55.2992 61.8816C55.466 61.7898 55.6032 61.6524 55.695 61.4857C55.7868 61.3189 55.8294 61.1294 55.8178 60.9394C55.6521 58.374 56.1515 55.1018 59.36 53.7275C64.9995 51.3104 83.7986 53.7275 83.7986 53.7275C83.7986 53.7275 64.9103 39.4637 44.8574 62.798Z" fill="#3F3D56"/>
<path d="M69.5644 83.3581C69.5644 83.3581 64.5518 83.8957 61.1498 82.1055L69.5644 83.3581Z" fill="white"/>
<path d="M69.5644 83.3581C69.5644 83.3581 64.5518 83.8957 61.1498 82.1055" stroke="black" stroke-width="0.463489" stroke-linecap="round" stroke-linejoin="round"/>
<path d="M70.2333 91.7565C70.2333 91.7565 69.5647 96.995 62.4027 95.1446C55.2406 93.2941 51.812 87.6975 51.812 87.6975C51.812 87.6975 51.8398 86.6349 49.513 87.6975C47.1863 88.76 33.7544 85.0034 29.4602 94.6312C27.0408 100.053 13.9473 145.876 20.0607 153.361C24.4476 158.733 31.6085 158.106 31.6085 158.106C31.6085 158.106 29.1926 174.398 36.2642 176.993C36.2642 176.993 35.8158 181.827 36.6223 182.543C37.4287 183.26 68.8486 187.556 99.5536 182.006C99.5536 182.006 100.537 182.454 99.5536 177.978C99.5536 177.978 105.133 177.023 100.712 152.077C96.2918 127.131 97.9673 112.333 97.9673 112.333C97.9673 112.333 93.8909 98.9011 84.4612 93.5305C81.6062 91.9083 78.2818 91.2339 76.166 90.9639C71.3005 90.3428 69.8741 90.3938 70.2333 91.7565Z" fill="#F17336" stroke="black" stroke-width="0.624362" stroke-miterlimit="10" stroke-linecap="round"/>
<path d="M58.165 157.282L57.3492 159.09L98.9265 162.173L101.177 157.282L100.717 152.078L58.165 157.282Z" fill="#E05918"/>
<path d="M46.7458 88.282C46.7458 88.282 50.5047 97.3536 57.3493 99.4428C64.1939 101.532 68.1915 99.6015 71.5935 94.9562C71.5935 94.9562 59.5984 104.933 50.2881 90.6689L48.762 88.1035L46.7458 88.282Z" fill="#E05918"/>
<path d="M43.8434 116.002C44.0547 116.323 44.1782 116.693 44.2014 117.076C44.2605 117.762 40.5607 136.262 42.8886 136.98C45.2164 137.697 63.2983 138.232 63.2983 138.232L72.8763 142.172C72.8763 142.172 55.5105 156.943 45.6637 160.613C35.8169 164.283 31.4694 165.189 31.4694 165.189L31.5424 162.01C31.5424 161.795 31.5597 161.579 31.5806 161.365L31.8772 158.315L35.8169 149.603L43.8434 116.002Z" fill="#E05918"/>
<path d="M57.6727 112.082L76.2783 131.876L77.0894 130.175L58.9844 110.737C58.8132 110.549 58.5897 110.415 58.3425 110.354C58.1792 110.305 58.004 110.316 57.8483 110.385C57.6926 110.454 57.5666 110.577 57.4931 110.731C57.3764 110.946 57.331 111.193 57.3633 111.435C57.3955 111.678 57.5039 111.904 57.6727 112.082Z" fill="#0B065A"/>
<path d="M61.866 137.278C61.866 137.278 65.4464 132.411 68.1323 129.729C70.8182 127.046 72.6085 126.327 78.5168 128.654C84.4251 130.982 71.5343 142.082 71.5343 142.082C71.5343 142.082 63.8358 144.499 61.866 144.499C59.8961 144.499 61.866 137.278 61.866 137.278Z" fill="white" stroke="black" stroke-width="0.463489" stroke-linecap="round" stroke-linejoin="round"/>
<path d="M57.3492 157.211L92.1225 110.33L126.14 117.644L96.4202 160.613L57.3492 157.211Z" fill="#4052F2" stroke="black" stroke-width="0.463489" stroke-miterlimit="10" stroke-linecap="round"/>
<path d="M77.0834 192.481L71.8923 208.058" stroke="white" stroke-width="0.115872" stroke-miterlimit="10"/>
<path d="M238.113 130.266L221.249 92.6049" stroke="black" stroke-width="0.463489" stroke-miterlimit="10" stroke-linecap="round"/>
<path d="M236.417 133.976C236.417 132.895 236.738 131.838 237.338 130.939C237.939 130.041 238.793 129.34 239.791 128.926C240.79 128.513 241.889 128.405 242.949 128.615C244.009 128.826 244.983 129.347 245.748 130.111C246.512 130.876 247.033 131.85 247.244 132.91C247.455 133.97 247.346 135.069 246.933 136.068C246.519 137.066 245.818 137.92 244.92 138.521C244.021 139.121 242.964 139.442 241.883 139.442C241.165 139.442 240.454 139.3 239.791 139.026C239.128 138.751 238.526 138.348 238.018 137.841C237.511 137.333 237.108 136.731 236.833 136.068C236.559 135.405 236.417 134.694 236.417 133.976Z" fill="#0B065A" stroke="black" stroke-width="0.463489" stroke-miterlimit="10" stroke-linecap="round"/>
<path d="M188.536 142.906V92.6049" stroke="black" stroke-width="0.463489" stroke-miterlimit="10" stroke-linecap="round"/>
<path d="M199.443 142.906V92.6049" stroke="black" stroke-width="0.463489" stroke-miterlimit="10" stroke-linecap="round"/>
<path d="M210.349 142.906V92.6049" stroke="black" stroke-width="0.463489" stroke-miterlimit="10" stroke-linecap="round"/>
<path d="M177.628 142.906V92.6049" stroke="black" stroke-width="0.463489" stroke-miterlimit="10" stroke-linecap="round"/>
<path d="M166.793 162.899V92.3535C166.795 91.8445 166.998 91.3567 167.358 90.9968C167.718 90.6368 168.205 90.4339 168.714 90.4324H228.528C229.037 90.4339 229.524 90.6368 229.884 90.9968C230.244 91.3567 230.447 91.8445 230.449 92.3535V162.899" stroke="#4052F2" stroke-width="0.463489" stroke-miterlimit="10" stroke-linecap="round"/>
<path d="M240.754 162.174H156.486V173.679H240.754V162.174Z" fill="#FCAA23" stroke="black" stroke-width="0.463489" stroke-linecap="round" stroke-linejoin="round"/>
<path d="M240.436 170.853H156.805V173.383H240.436V170.853Z" fill="#EA8B00"/>
<path d="M177.442 93.6905C177.385 93.6905 177.329 93.6793 177.277 93.6575C177.224 93.6358 177.177 93.604 177.137 93.5638C177.097 93.5237 177.065 93.476 177.043 93.4236C177.022 93.3711 177.011 93.315 177.011 93.2583V87.5064C177.011 87.392 177.056 87.2824 177.137 87.2016C177.218 87.1207 177.328 87.0753 177.442 87.0753C177.556 87.0753 177.666 87.1207 177.747 87.2016C177.828 87.2824 177.873 87.392 177.873 87.5064V93.2583C177.873 93.3727 177.828 93.4824 177.747 93.5635C177.666 93.6445 177.556 93.6901 177.442 93.6905Z" fill="#4052F2"/>
<path d="M188.393 93.6908C188.279 93.6905 188.169 93.6448 188.088 93.5638C188.008 93.4828 187.962 93.373 187.962 93.2586V87.5067C187.959 87.4481 187.968 87.3896 187.988 87.3345C188.009 87.2795 188.04 87.2292 188.08 87.1867C188.121 87.1442 188.169 87.1103 188.223 87.0872C188.277 87.064 188.335 87.0521 188.394 87.0521C188.452 87.0521 188.51 87.064 188.564 87.0872C188.618 87.1103 188.667 87.1442 188.707 87.1867C188.748 87.2292 188.779 87.2795 188.799 87.3345C188.82 87.3896 188.828 87.4481 188.825 87.5067V93.2586C188.825 93.3732 188.78 93.4831 188.699 93.5642C188.618 93.6453 188.508 93.6908 188.393 93.6908Z" fill="#4052F2"/>
<path d="M199.345 93.6905C199.288 93.6905 199.232 93.6793 199.18 93.6575C199.128 93.6358 199.08 93.604 199.04 93.5638C199 93.5237 198.968 93.476 198.947 93.4236C198.925 93.3711 198.914 93.315 198.914 93.2583V87.5064C198.914 87.392 198.959 87.2824 199.04 87.2016C199.121 87.1207 199.231 87.0753 199.345 87.0753C199.459 87.0753 199.569 87.1207 199.65 87.2016C199.731 87.2824 199.776 87.392 199.776 87.5064V93.2583C199.776 93.315 199.765 93.3711 199.744 93.4236C199.722 93.476 199.69 93.5237 199.65 93.5638C199.61 93.604 199.563 93.6358 199.51 93.6575C199.458 93.6793 199.402 93.6905 199.345 93.6905Z" fill="#4052F2"/>
<path d="M210.297 93.6908C210.182 93.6908 210.072 93.6453 209.991 93.5642C209.91 93.4831 209.865 93.3732 209.865 93.2586V87.5067C209.862 87.4481 209.871 87.3896 209.891 87.3345C209.911 87.2795 209.943 87.2292 209.983 87.1867C210.023 87.1442 210.072 87.1103 210.126 87.0872C210.18 87.064 210.238 87.0521 210.296 87.0521C210.355 87.0521 210.413 87.064 210.467 87.0872C210.521 87.1103 210.57 87.1442 210.61 87.1867C210.65 87.2292 210.682 87.2795 210.702 87.3345C210.722 87.3896 210.731 87.4481 210.728 87.5067V93.2586C210.728 93.373 210.683 93.4828 210.602 93.5638C210.521 93.6448 210.411 93.6905 210.297 93.6908Z" fill="#4052F2"/>
<path d="M221.248 93.6905C221.134 93.6901 221.024 93.6445 220.943 93.5635C220.863 93.4824 220.817 93.3727 220.817 93.2583V87.5064C220.817 87.392 220.863 87.2824 220.944 87.2016C221.024 87.1207 221.134 87.0753 221.248 87.0753C221.363 87.0753 221.472 87.1207 221.553 87.2016C221.634 87.2824 221.679 87.392 221.679 87.5064V93.2583C221.679 93.315 221.668 93.3711 221.647 93.4236C221.625 93.476 221.594 93.5237 221.554 93.5638C221.513 93.604 221.466 93.6358 221.414 93.6575C221.361 93.6793 221.305 93.6905 221.248 93.6905Z" fill="#4052F2"/>
<path d="M171.932 143.221C171.932 142.14 172.252 141.084 172.853 140.185C173.453 139.286 174.307 138.585 175.306 138.172C176.304 137.758 177.403 137.65 178.464 137.861C179.524 138.072 180.498 138.592 181.262 139.357C182.027 140.121 182.547 141.095 182.758 142.155C182.969 143.215 182.861 144.314 182.447 145.313C182.033 146.312 181.333 147.165 180.434 147.766C179.535 148.367 178.478 148.687 177.397 148.687C175.948 148.687 174.558 148.111 173.533 147.086C172.507 146.061 171.932 144.671 171.932 143.221Z" fill="#0B065A" stroke="black" stroke-width="0.463489" stroke-miterlimit="10" stroke-linecap="round"/>
<path d="M182.88 143.221C182.88 142.14 183.2 141.084 183.801 140.185C184.401 139.286 185.255 138.585 186.254 138.172C187.252 137.758 188.351 137.65 189.412 137.861C190.472 138.072 191.446 138.592 192.21 139.357C192.974 140.121 193.495 141.095 193.706 142.155C193.917 143.215 193.809 144.314 193.395 145.313C192.981 146.312 192.281 147.165 191.382 147.766C190.483 148.367 189.426 148.687 188.345 148.687C186.896 148.687 185.505 148.111 184.48 147.086C183.455 146.061 182.88 144.671 182.88 143.221Z" fill="#0B065A" stroke="black" stroke-width="0.463489" stroke-miterlimit="10" stroke-linecap="round"/>
<path d="M193.787 143.221C193.787 142.14 194.107 141.084 194.708 140.185C195.309 139.286 196.162 138.585 197.161 138.172C198.16 137.758 199.259 137.65 200.319 137.861C201.379 138.072 202.353 138.592 203.117 139.357C203.882 140.121 204.402 141.095 204.613 142.155C204.824 143.215 204.716 144.314 204.302 145.313C203.889 146.312 203.188 147.165 202.289 147.766C201.39 148.367 200.334 148.687 199.253 148.687C197.803 148.687 196.413 148.111 195.388 147.086C194.363 146.061 193.787 144.671 193.787 143.221Z" fill="#0B065A" stroke="black" stroke-width="0.463489" stroke-miterlimit="10" stroke-linecap="round"/>
<path d="M204.776 143.221C204.776 142.14 205.096 141.084 205.697 140.185C206.298 139.286 207.151 138.585 208.15 138.172C209.149 137.758 210.248 137.65 211.308 137.861C212.368 138.072 213.342 138.593 214.107 139.357C214.871 140.122 215.391 141.096 215.602 142.156C215.813 143.216 215.705 144.315 215.291 145.314C214.877 146.313 214.176 147.166 213.277 147.767C212.378 148.367 211.321 148.687 210.24 148.687C209.523 148.687 208.812 148.546 208.149 148.271C207.486 147.996 206.883 147.594 206.376 147.086C205.868 146.579 205.466 145.976 205.191 145.313C204.917 144.65 204.776 143.939 204.776 143.221Z" fill="#0B065A" stroke="black" stroke-width="0.463489" stroke-miterlimit="10" stroke-linecap="round"/>
<path d="M175.75 142.965C175.303 142.965 174.867 142.833 174.495 142.585C174.124 142.336 173.834 141.984 173.663 141.571C173.492 141.158 173.448 140.704 173.535 140.266C173.622 139.828 173.837 139.426 174.153 139.11C174.469 138.794 174.871 138.579 175.309 138.492C175.747 138.405 176.201 138.449 176.614 138.62C177.027 138.791 177.379 139.081 177.628 139.452C177.876 139.824 178.008 140.26 178.008 140.707C178.008 141.306 177.769 141.88 177.346 142.303C176.923 142.726 176.349 142.965 175.75 142.965Z" fill="white"/>
<path d="M239.535 134.542C239.089 134.541 238.653 134.409 238.282 134.161C237.911 133.913 237.621 133.56 237.451 133.148C237.28 132.735 237.236 132.281 237.323 131.843C237.41 131.406 237.625 131.004 237.941 130.688C238.257 130.372 238.659 130.158 239.097 130.071C239.534 129.984 239.988 130.028 240.401 130.199C240.813 130.37 241.165 130.659 241.413 131.031C241.661 131.402 241.794 131.838 241.794 132.285C241.793 132.883 241.555 133.457 241.131 133.88C240.708 134.304 240.134 134.541 239.535 134.542Z" fill="white"/>
<path d="M187.384 142.965C186.937 142.965 186.5 142.833 186.129 142.585C185.758 142.336 185.468 141.984 185.297 141.571C185.126 141.158 185.081 140.704 185.169 140.266C185.256 139.828 185.471 139.426 185.787 139.11C186.103 138.794 186.505 138.579 186.943 138.492C187.381 138.405 187.835 138.449 188.248 138.62C188.66 138.791 189.013 139.081 189.261 139.452C189.509 139.824 189.642 140.26 189.642 140.707C189.641 141.306 189.403 141.88 188.98 142.303C188.556 142.726 187.982 142.965 187.384 142.965Z" fill="white"/>
<path d="M198.075 142.965C197.628 142.965 197.192 142.833 196.82 142.585C196.449 142.337 196.159 141.985 195.988 141.572C195.817 141.159 195.772 140.705 195.859 140.267C195.946 139.829 196.161 139.426 196.477 139.11C196.793 138.794 197.195 138.579 197.633 138.492C198.071 138.405 198.525 138.449 198.938 138.62C199.351 138.791 199.703 139.081 199.952 139.452C200.2 139.823 200.332 140.26 200.332 140.707C200.332 141.305 200.094 141.879 199.671 142.303C199.248 142.726 198.674 142.964 198.075 142.965Z" fill="white"/>
<path d="M209.016 142.965C208.569 142.965 208.132 142.833 207.761 142.585C207.389 142.337 207.1 141.985 206.928 141.572C206.757 141.159 206.712 140.705 206.799 140.267C206.886 139.829 207.101 139.426 207.417 139.11C207.733 138.794 208.135 138.579 208.574 138.492C209.012 138.405 209.466 138.449 209.879 138.62C210.291 138.791 210.644 139.081 210.892 139.452C211.14 139.823 211.273 140.26 211.273 140.707C211.272 141.305 211.034 141.879 210.611 142.303C210.188 142.726 209.614 142.964 209.016 142.965Z" fill="white"/>
<path d="M111.579 141.396C111.579 141.396 108.175 139.853 105.682 139.695C104.817 139.641 103.97 140.052 103.556 140.812C103.511 140.891 103.472 140.973 103.44 141.058C103.44 141.058 101.677 140.614 101.341 141.574C100.994 142.57 101.61 143.167 101.61 143.167C101.415 143.356 101.278 143.596 101.215 143.86C101.152 144.124 101.164 144.401 101.252 144.658C101.45 145.275 102.751 146.215 102.758 146.35C102.758 146.35 101.593 146.657 102.195 147.611C102.798 148.566 102.797 148.566 105.722 150.108C108.527 151.583 114.174 142.828 111.579 141.396Z" fill="white" stroke="black" stroke-width="0.463489" stroke-linecap="round" stroke-linejoin="round"/>
<path d="M31.6085 158.106C31.6085 158.106 45.8121 155.54 59.6577 146.946L64.6715 144.081C64.6715 144.081 65.8047 144.141 63.7167 141.813C61.6287 139.485 61.8627 137.278 61.8627 137.278C61.8627 137.278 62.9971 136.562 56.6705 137.278C50.3439 137.994 38.3766 140.523 38.3766 140.523C38.3766 140.523 42.1691 124.271 43.6013 115.857" fill="#F17336"/>
<path d="M31.6085 158.106C31.6085 158.106 45.8121 155.54 59.6577 146.946L64.6715 144.081C64.6715 144.081 65.8047 144.141 63.7167 141.813C61.6287 139.485 61.8627 137.278 61.8627 137.278C61.8627 137.278 62.9971 136.562 56.6705 137.278C50.3439 137.994 38.3766 140.523 38.3766 140.523C38.3766 140.523 42.1691 124.271 43.6013 115.857" stroke="black" stroke-width="0.624362" stroke-miterlimit="10" stroke-linecap="round"/>
<path d="M103.581 141.057C103.581 141.057 109.399 142.679 110.664 143.285L103.581 141.057Z" fill="white"/>
<path d="M103.581 141.057C103.581 141.057 109.399 142.679 110.664 143.285" stroke="black" stroke-width="0.463489" stroke-linecap="round" stroke-linejoin="round"/>
<path d="M101.613 143.168C101.613 143.168 107.918 145.316 109.028 145.794L101.613 143.168Z" fill="white"/>
<path d="M101.613 143.168C101.613 143.168 107.918 145.316 109.028 145.794" stroke="black" stroke-width="0.463489" stroke-linecap="round" stroke-linejoin="round"/>
<path d="M102.765 146.35L107.48 148.419" stroke="black" stroke-width="0.463489" stroke-linecap="round" stroke-linejoin="round"/>
<path d="M28.8634 143.425C28.8634 143.425 32.0823 141.431 38.38 140.519L28.8634 143.425Z" fill="#FCAA23"/>
<path d="M28.8634 143.425C28.8634 143.425 32.0823 141.431 38.38 140.519" stroke="black" stroke-width="0.463489" stroke-linecap="round" stroke-linejoin="round"/>
<path d="M36.2642 176.994C36.2642 176.994 51.0008 180.861 80.0638 178.802" stroke="black" stroke-width="0.463489" stroke-linecap="round" stroke-linejoin="round"/>
<path d="M83.2609 178.769C83.2609 178.769 94.0034 179.053 99.5536 177.979L83.2609 178.769Z" fill="#FCAA23"/>
<path d="M83.2609 178.769C83.2609 178.769 94.0034 179.053 99.5536 177.979" stroke="black" stroke-width="0.463489" stroke-linecap="round" stroke-linejoin="round"/>
<path d="M33.5261 90.2777C33.5261 90.2777 22.9319 144.466 26.298 150.95C28.5586 155.306 38.38 156.063 38.38 156.063C38.38 156.063 35.6373 157.157 31.3848 157.888C31.3848 157.888 25.561 158.211 21.6028 154.631C21.6028 154.631 19.5936 153.158 19.1962 150.732C18.8753 149.275 18.7198 147.787 18.7327 146.295C18.7524 143.789 18.9517 140.525 18.9517 140.525L19.713 134.657L20.8717 127.853L22.2436 121.289L23.816 114.8L25.3478 108.774L26.919 103.245L29.0476 96.3819C29.0476 96.3819 30.3407 92.8999 31.6733 91.7667C33.0058 90.6334 33.5261 90.2777 33.5261 90.2777Z" fill="#E05918"/>
<path d="M48.7622 87.8685C48.7622 87.8685 52.9742 97.1742 62.2833 98.129" stroke="black" stroke-width="0.463489" stroke-linecap="round" stroke-linejoin="round"/>
<path d="M64.3274 98.1289C64.3274 98.1289 71.7131 98.2529 72.1905 92.9993" stroke="black" stroke-width="0.463489" stroke-linecap="round" stroke-linejoin="round"/>
<path d="M60.1791 156.137L79.0964 130.357" stroke="black" stroke-width="0.463489" stroke-miterlimit="10" stroke-linecap="round"/>
<path d="M80.5865 128.923L89.4809 116.749" stroke="black" stroke-width="0.463489" stroke-miterlimit="10" stroke-linecap="round"/>
<path d="M93.2025 112.262L123.731 118.854" stroke="black" stroke-width="0.463489" stroke-miterlimit="10" stroke-linecap="round"/>
<path d="M87.2003 53.189L85.9547 57.3186L85.2294 59.7253C84.1564 61.1575 83.723 59.7392 83.723 59.7392C85.3452 56.7115 80.0371 53.0117 65.7628 53.6374C51.4886 54.2631 44.9464 65.5432 44.9464 65.5432C44.6973 65.5432 44.4285 65.2026 44.1759 64.6499C43.4262 63.0091 42.8433 59.4959 43.5131 57.4867C43.9383 56.2121 54.9717 47.6375 69.0258 46.5947C83.0799 45.5518 87.2003 53.189 87.2003 53.189Z" fill="#4052F2" stroke="black" stroke-width="0.463489" stroke-miterlimit="10" stroke-linecap="round"/>
<path d="M85.8214 56.9074L84.9918 59.6049C84.1656 60.6292 84.037 59.7637 84.037 59.7637C85.6592 56.7359 80.0382 52.7499 65.764 53.3756C51.4897 54.0013 44.9475 65.2815 44.9475 65.2815C44.6984 65.2815 44.4099 64.628 44.2314 64.0405C44.2975 63.8736 49.6774 50.6097 71.5935 51.9446C79.5273 52.4301 83.6384 54.3965 85.8214 56.9074Z" fill="#0502AB"/>
<path d="M47.0126 59.93C47.0126 59.93 52.0994 52.4366 67.1442 51.8734" stroke="black" stroke-width="0.463489" stroke-miterlimit="10" stroke-linecap="round"/>
<path d="M97.7227 173.862H296.652C297.267 173.862 297.856 174.106 298.291 174.541C298.725 174.976 298.969 175.565 298.969 176.18V208.058H95.4053V176.18C95.4053 175.565 95.6494 174.976 96.084 174.541C96.5186 174.106 97.1081 173.862 97.7227 173.862Z" fill="#FEFEFE" stroke="#090000" stroke-width="0.855143" stroke-miterlimit="10" stroke-linecap="round"/>
<path d="M298.02 173.862H96.4052C95.1253 173.862 94.0878 174.9 94.0878 176.18V182.588C94.0878 183.868 95.1253 184.906 96.4052 184.906H298.02C299.3 184.906 300.338 183.868 300.338 182.588V176.18C300.338 174.9 299.3 173.862 298.02 173.862Z" fill="#F9E9BF" stroke="#090000" stroke-width="0.855143" stroke-miterlimit="10" stroke-linecap="round"/>
<path d="M1.09473 208.011H13.9855" stroke="black" stroke-width="0.463489" stroke-linecap="round" stroke-linejoin="round"/>
<path d="M18.6006 208.116H35.1402" stroke="black" stroke-width="0.463489" stroke-linecap="round" stroke-linejoin="round"/>
<path d="M258.624 208.011L322.848 208.011" stroke="black" stroke-width="0.463489" stroke-linecap="round" stroke-linejoin="round"/>
<path d="M71.8974 64.932C72.1145 64.2402 71.8954 63.5554 71.4082 63.4026C70.9209 63.2497 70.35 63.6866 70.1329 64.3784C69.9158 65.0702 70.1349 65.7549 70.6221 65.9078C71.1094 66.0607 71.6803 65.6238 71.8974 64.932Z" fill="black"/>
<path d="M80.7698 67.1139C80.9869 66.4221 80.7679 65.7373 80.2806 65.5844C79.7934 65.4316 79.2224 65.8684 79.0053 66.5602C78.7883 67.252 79.0073 67.9368 79.4946 68.0897C79.9818 68.2426 80.5528 67.8057 80.7698 67.1139Z" fill="black"/>
<path d="M76.4892 66.5541C76.4892 66.5541 75.8125 71.5273 75.415 72.6814C75.0373 73.7741 72.4707 72.9595 72.4707 72.9595" fill="white"/>
<path d="M76.4892 66.5541C76.4892 66.5541 75.8125 71.5273 75.415 72.6814C75.0373 73.7741 72.4707 72.9595 72.4707 72.9595" stroke="black" stroke-width="0.463489" stroke-linecap="round" stroke-linejoin="round"/>
<path d="M68.8496 59.9303C68.8496 59.9303 72.7487 58.4785 74.1797 60.3486L68.8496 59.9303Z" fill="white"/>
<path d="M68.8496 59.9303C68.8496 59.9303 72.7487 58.4785 74.1797 60.3486" stroke="black" stroke-width="0.463489" stroke-linecap="round" stroke-linejoin="round"/>
<path d="M79.6313 62.2186C79.6313 62.2186 82.3613 61.856 82.6081 63.8073L79.6313 62.2186Z" fill="white"/>
<path d="M79.6313 62.2186C79.6313 62.2186 82.3613 61.856 82.6081 63.8073" stroke="black" stroke-width="0.463489" stroke-linecap="round" stroke-linejoin="round"/>
<path d="M66.7408 72.7208C66.7408 72.7208 66.7675 77.3175 72.9076 77.1379L66.7408 72.7208Z" fill="white"/>
<path d="M66.7408 72.7208C66.7408 72.7208 66.7675 77.3175 72.9076 77.1379" stroke="black" stroke-width="0.463489" stroke-linecap="round" stroke-linejoin="round"/>
<path d="M62.9834 11.7542C74.2724 11.7542 85.5615 11.7542 96.8506 11.7542C97.2399 11.7542 97.2399 11.1395 96.8506 11.1395C85.5615 11.1395 74.2724 11.1395 62.9834 11.1395C62.5941 11.1395 62.5941 11.7542 62.9834 11.7542Z" fill="#E8E8E8"/>
<path d="M72.2032 11.7133C72.2032 15.6266 72.2032 19.5604 72.2032 23.4737C72.2032 23.8629 72.8179 23.8629 72.8179 23.4737C72.8179 19.5604 72.8179 15.6266 72.8179 11.7133C72.8179 11.3241 72.2032 11.3241 72.2032 11.7133Z" fill="#E8E8E8"/>
<path d="M88.4298 12C88.4298 15.5444 88.4298 19.0889 88.4298 22.6334C88.4298 23.0227 89.0445 23.0227 89.0445 22.6334C89.0445 19.0889 89.0445 15.5444 89.0445 12C89.0445 11.6107 88.4298 11.6107 88.4298 12Z" fill="#E8E8E8"/>
<path d="M80.3782 10.8736C80.3782 8.06667 80.3782 5.28026 80.3782 2.47336C80.3782 2.08408 79.7635 2.08408 79.7635 2.47336C79.7635 5.28026 79.7635 8.06667 79.7635 10.8736C79.7635 11.2833 80.3782 11.2833 80.3782 10.8736Z" fill="#E8E8E8"/>
<path d="M75.8707 1.121C81.1976 1.121 86.5041 1.121 91.8311 1.121C92.2204 1.121 92.2204 0.506348 91.8311 0.506348C86.5041 0.506348 81.1976 0.506348 75.8707 0.506348C75.4609 0.506348 75.4609 1.121 75.8707 1.121Z" fill="#E8E8E8"/>
<path d="M240.738 113.991C252.027 113.991 263.316 113.991 274.605 113.991C274.995 113.991 274.995 113.377 274.605 113.377C263.316 113.377 252.027 113.377 240.738 113.377C240.349 113.377 240.349 113.991 240.738 113.991Z" fill="#E8E8E8"/>
<path d="M249.958 113.95C249.958 117.864 249.958 121.797 249.958 125.711C249.958 126.1 250.572 126.1 250.572 125.711C250.572 121.797 250.572 117.864 250.572 113.95C250.572 113.561 249.958 113.561 249.958 113.95Z" fill="#E8E8E8"/>
<path d="M266.185 114.237C266.185 117.782 266.185 121.326 266.185 124.871C266.185 125.26 266.799 125.26 266.799 124.871C266.799 121.326 266.799 117.782 266.799 114.237C266.799 113.848 266.185 113.848 266.185 114.237Z" fill="#E8E8E8"/>
<path d="M258.133 113.111C258.133 110.304 258.133 107.518 258.133 104.711C258.133 104.322 257.518 104.322 257.518 104.711C257.518 107.518 257.518 110.304 257.518 113.111C257.518 113.521 258.133 113.521 258.133 113.111Z" fill="#E8E8E8"/>
<path d="M253.625 103.358C258.952 103.358 264.259 103.358 269.586 103.358C269.975 103.358 269.975 102.744 269.586 102.744C264.259 102.744 258.952 102.744 253.625 102.744C253.216 102.744 253.216 103.358 253.625 103.358Z" fill="#E8E8E8"/>
</svg>
